<?xml version="1.0" encoding="UTF-8" standalone="no"?>
<!DOCTYPE svg PUBLIC "-//W3C//DTD SVG 1.1//EN" "http://www.w3.org/Graphics/SVG/1.1/DTD/svg11.dtd">
<svg width="100%" height="100%" viewBox="0 0 1373 871" version="1.1" xmlns="http://www.w3.org/2000/svg" xmlns:xlink="http://www.w3.org/1999/xlink" xml:space="preserve" xmlns:serif="http://www.serif.com/" style="fill-rule:evenodd;clip-rule:evenodd;stroke-linejoin:round;stroke-miterlimit:1.41421;">
    <g transform="matrix(1.8662,0,0,1.8662,127.747,639.141)">
        <g transform="matrix(1.19865,0,0,1.19865,43.6124,-179.81)">
            <path d="M0,-11.901C1.538,-11.887 3.076,-11.87 4.613,-11.86C4.417,-7.907 4.431,-3.94 4.832,0C3.218,0 1.609,0 0,-0.004C0.004,-3.971 0,-7.934 0,-11.901" style="fill:white;fill-rule:nonzero;"/>
        </g>
        <g transform="matrix(1.19865,0,0,1.19865,102.614,-179.831)">
            <path d="M0,-11.874C1.458,-11.883 2.915,-11.896 4.377,-11.896C4.818,-7.947 4.898,-3.954 4.426,0.001C2.942,0.022 1.462,0.022 -0.022,0.014C-0.014,-3.949 -0.009,-7.912 0,-11.874" style="fill:white;fill-rule:nonzero;"/>
        </g>
        <g transform="matrix(1.19865,0,0,1.19865,-26.6673,-186.135)">
            <path d="M0,-1.088C-0.112,-0.58 -0.236,-0.076 -0.379,0.428C0.183,0.348 0.807,0.276 1.159,-0.228C1.177,-0.847 0.374,-0.825 0,-1.088M-1.253,-5.71C-0.085,-5.982 1.092,-6.205 2.277,-6.388C3.749,-2.554 4.93,1.377 6.142,5.3C4.979,5.286 3.811,5.273 2.643,5.246C2.135,3.659 0.62,2.955 -0.923,2.732C-1.177,3.575 -1.422,4.426 -1.676,5.273C-2.675,5.273 -3.673,5.268 -4.676,5.273C-3.593,1.596 -2.652,-2.135 -1.253,-5.71" style="fill:white;fill-rule:nonzero;"/>
        </g>
        <g transform="matrix(1.19865,0,0,1.19865,21.3004,-189.933)">
            <path d="M0,5.571C0.74,5.656 1.649,5.843 2.091,5.05C3.121,3.271 2.648,0.931 1.329,-0.58C-1.069,0.525 -0.588,3.503 0,5.571M-0.588,-2.933C2.385,-4.039 5.929,-1.828 6.379,1.265C6.575,3.262 6.548,5.575 4.975,7.055C2.679,9.61 -2.095,9.048 -3.602,5.923C-5.242,2.879 -4.23,-1.926 -0.588,-2.933" style="fill:white;fill-rule:nonzero;"/>
        </g>
        <g transform="matrix(1.19865,0,0,1.19865,50.0294,-180.023)">
            <path d="M0,-11.192C6.125,-11.174 12.249,-11.379 18.373,-11.183C18.431,-10.234 18.489,-9.284 18.538,-8.331C16.827,-8.321 15.115,-8.299 13.408,-8.286C13.399,-7.956 13.39,-7.296 13.381,-6.966C14.803,-6.966 16.229,-6.971 17.651,-6.971C17.665,-6.173 17.682,-5.375 17.7,-4.577C15.984,-4.488 14.272,-4.346 12.57,-4.123C13.791,-1.939 16.528,-2.447 18.614,-2.366C18.601,-1.52 18.592,-0.672 18.583,0.174C15.659,0.179 12.735,0.183 9.815,0.183C9.717,-3.258 9.909,-6.694 10.016,-10.127C9.909,-10.354 9.695,-10.813 9.588,-11.041C8.099,-7.969 6.169,-5.152 4.029,-2.5C5.674,-2.5 7.323,-2.5 8.973,-2.496C8.973,-1.604 8.973,-0.717 8.977,0.179C5.888,0.187 2.804,0.174 -0.286,0.179C-0.29,-0.686 -0.308,-1.542 -0.316,-2.402C1.15,-4.355 2.59,-6.32 4.029,-8.286C2.67,-8.29 1.311,-8.304 -0.049,-8.331C-0.031,-9.284 -0.018,-10.238 0,-11.192" style="fill:white;fill-rule:nonzero;"/>
        </g>
        <g transform="matrix(1.19865,0,0,1.19865,90.5283,-186.44)">
            <path d="M0,-0.441C-1.623,-2.634 0.437,-5.83 2.964,-6.008C5.491,-6.664 7.778,-5.041 9.392,-3.272C7.653,-2.589 5.799,-2.327 3.976,-2.79L3.303,-2.34C5.001,-1.707 6.936,-1.506 8.384,-0.325C9.454,0.504 9.004,2.091 8.647,3.183C7.698,5.893 4.132,6.223 1.801,5.327C0.383,4.778 -0.633,3.602 -1.494,2.403C-0.473,2.126 0.553,1.886 1.582,1.654C2.893,2.38 4.337,2.88 5.861,2.835C4.029,1.52 1.743,0.99 0,-0.441" style="fill:white;fill-rule:nonzero;"/>
        </g>
        <g transform="matrix(1.19865,0,0,1.19865,109.687,-183.577)">
            <path d="M0,-6.605C2.483,-9.859 8.474,-8.589 9.2,-4.457C8.104,-4.278 7.012,-4.109 5.915,-3.935C5.465,-4.51 5.019,-5.081 4.569,-5.651L2.893,-5.348C2.554,-3.097 2.153,-0.026 4.761,1.057C4.261,-0.329 3.798,-1.738 3.611,-3.204C5.442,-3.347 7.279,-3.342 9.111,-3.32C9.102,-1.131 9.125,1.062 9.071,3.254C7.703,2.92 6.298,2.711 4.899,2.996C3.232,3.246 1.065,3.254 0.018,1.686C-1.279,-0.855 -1.333,-4.069 0,-6.605" style="fill:white;fill-rule:nonzero;"/>
        </g>
        <g transform="matrix(1.19865,0,0,1.19865,156.218,-178.687)">
            <path d="M0,-12.311C1.155,-12.311 2.309,-12.302 3.468,-12.293C3.624,-10.002 2.969,-7.698 3.383,-5.42C3.562,-4.395 4.471,-3.815 5.251,-3.258C7.279,-5.879 6.084,-9.298 6.308,-12.311C7.288,-12.307 8.278,-12.293 9.263,-12.275C9.129,-8.897 9.864,-5.313 8.514,-2.099C6.276,0 1.846,-0.071 0.183,-2.839C-0.285,-5.973 -0.044,-9.155 0,-12.311" style="fill:white;fill-rule:nonzero;"/>
        </g>
        <g transform="matrix(1.19865,0,0,1.19865,-18.5144,-191.227)">
            <path d="M0,8.184C-1.422,5.038 -0.588,1.485 -0.753,-1.845L3.04,-1.845C3.063,1.039 2.848,3.945 3.308,6.807C3.999,6.811 4.689,6.816 5.38,6.825C5.933,3.976 5.674,1.07 5.706,-1.809C6.673,-1.823 7.636,-1.84 8.603,-1.854C8.563,1.039 8.75,3.945 8.509,6.829C8.505,8.425 6.842,9.272 5.509,9.646C3.624,10.038 1.288,9.745 0,8.184" style="fill:white;fill-rule:nonzero;"/>
        </g>
        <g transform="matrix(1.19865,0,0,1.19865,-7.53458,-179.858)">
            <path d="M0,-11.321C2.951,-11.357 5.897,-11.33 8.843,-11.205C8.563,-9.712 7.778,-8.245 6.165,-7.902C6.125,-5.259 6.142,-2.615 6.151,0.032C4.881,0.036 3.615,0.036 2.344,0.036C2.335,-2.558 2.358,-5.152 2.344,-7.746C0.847,-8.321 -0.067,-9.712 0,-11.321" style="fill:white;fill-rule:nonzero;"/>
        </g>
        <g transform="matrix(1.19865,0,0,1.19865,3.5623,-179.804)">
            <path d="M0,-11.393C1.11,-11.384 2.22,-11.375 3.334,-11.371C3.343,-9.971 3.365,-8.567 3.392,-7.163C4.146,-7.163 4.894,-7.158 5.643,-7.154C5.697,-8.562 5.732,-9.971 5.764,-11.379C6.971,-11.375 8.175,-11.362 9.383,-11.344C9.423,-7.564 9.432,-3.784 9.423,-0.009C8.193,0 6.967,-0.009 5.737,-0.027C5.679,-1.319 5.781,-2.643 5.447,-3.909C5.162,-4.591 4.333,-4.39 3.758,-4.538C3.41,-3.058 3.312,-1.538 3.294,-0.018C2.064,-0.009 0.833,0 -0.396,-0.004C-0.49,-3.802 -0.45,-7.618 0,-11.393" style="fill:white;fill-rule:nonzero;"/>
        </g>
        <g transform="matrix(1.19865,0,0,1.19865,33.771,-184.655)">
            <path d="M0,-3.709C0.628,-2.706 1.734,-2.585 2.813,-2.563C2.831,-3.361 2.826,-4.159 2.813,-4.957C1.707,-4.961 0.557,-4.801 0,-3.709M-2.741,-7.324C0.196,-7.226 3.316,-7.751 6.084,-6.53C7.386,-5.599 6.994,-3.745 7.216,-2.358C6.646,-1.788 6.08,-1.209 5.518,-0.629C6.106,0.927 6.695,2.482 7.27,4.042C6.044,4.042 4.818,4.042 3.597,4.038C2.821,2.554 2.046,1.069 1.172,-0.361C1.074,1.105 0.972,2.572 0.869,4.038L-2.808,4.038C-2.804,0.249 -2.777,-3.535 -2.741,-7.324" style="fill:white;fill-rule:nonzero;"/>
        </g>
        <g transform="matrix(1.19865,0,0,1.19865,78.7204,-182.081)">
            <path d="M0,-7.381C-0.348,-5.063 -0.33,-2.714 -0.272,-0.379C0.637,-1.19 1.716,-1.889 2.331,-2.968C2.652,-4.809 1.248,-6.257 0,-7.381M-4.092,-9.48C-1.476,-9.404 1.337,-9.837 3.762,-8.615C6.757,-6.556 6.869,-1.582 4.163,0.758C1.752,2.456 -1.355,1.761 -4.11,1.895C-4.11,-1.898 -4.096,-5.687 -4.092,-9.48" style="fill:white;fill-rule:nonzero;"/>
        </g>
        <g transform="matrix(1.19865,0,0,1.19865,121.902,-179.746)">
            <path d="M0,-11.428C1.132,-11.442 2.269,-11.41 3.401,-11.384C4.461,-9.601 5.634,-7.885 6.806,-6.168C6.699,-7.903 6.574,-9.632 6.423,-11.361C7.475,-11.392 8.527,-11.419 9.583,-11.437C9.592,-7.621 9.597,-3.806 9.583,0.014C8.536,-0.071 7.488,-0.156 6.441,-0.258C5.255,-2.335 4.047,-4.399 2.786,-6.427C2.906,-4.305 2.933,-2.175 3.098,-0.049C2.063,-0.053 1.025,-0.053 -0.009,-0.057C-0.005,-3.846 0,-7.635 0,-11.428" style="fill:white;fill-rule:nonzero;"/>
        </g>
        <g transform="matrix(1.19865,0,0,1.19865,138.956,-187.519)">
            <path d="M0,1.649C0.575,1.444 1.15,1.243 1.721,1.021C1.422,0.682 1.124,0.347 0.816,0.022C0.294,0.423 0.018,0.981 0,1.649M-0.789,-4.917C0.522,-4.912 1.837,-4.908 3.147,-4.908C4.319,-1.083 5.527,2.728 6.642,6.566C5.452,6.445 4.19,6.561 3.067,6.088C2.202,5.741 2.073,4.738 1.77,3.984C0.254,4.065 -1.025,4.947 -1.479,6.419C-2.389,6.427 -3.294,6.436 -4.199,6.45C-3.04,2.665 -1.912,-1.123 -0.789,-4.917" style="fill:white;fill-rule:nonzero;"/>
        </g>
        <g transform="matrix(1.19865,0,0,1.19865,145.212,-179.879)">
            <path d="M0,-11.268C2.938,-11.326 5.879,-11.326 8.817,-11.268C8.634,-10.479 8.688,-9.57 8.166,-8.896C7.676,-8.237 6.775,-8.272 6.062,-8.063C6.04,-5.353 6.036,-2.647 6.022,0.058C4.885,0.054 3.749,0.054 2.612,0.049C2.612,-2.598 2.63,-5.25 2.603,-7.898C0.99,-8.25 -0.084,-9.601 0,-11.268" style="fill:white;fill-rule:nonzero;"/>
        </g>
        <g transform="matrix(1.19865,0,0,1.19865,173.455,-183.827)">
            <path d="M0,-5.336C-1.319,-4.137 1.146,-2.265 2.157,-3.611C3.495,-4.801 0.985,-6.678 0,-5.336M-3.383,-8.006C-0.308,-7.841 3.214,-8.701 5.888,-6.731C7.256,-4.89 5.834,-2.644 4.805,-1.012C5.384,0.454 6.004,1.898 6.601,3.356C5.277,3.356 3.954,3.343 2.634,3.303C1.917,1.716 1.146,0.156 0.312,-1.369C0.143,0.205 0.022,1.783 -0.045,3.365C-1.164,3.36 -2.278,3.352 -3.392,3.352C-3.41,-0.433 -3.406,-4.222 -3.383,-8.006" style="fill:white;fill-rule:nonzero;"/>
        </g>
        <g transform="matrix(1.19865,0,0,1.19865,182.276,-179.873)">
            <path d="M0,-11.286C2.839,-11.273 5.679,-11.335 8.518,-11.317C8.527,-10.417 8.541,-9.516 8.554,-8.616C6.606,-8.429 4.64,-8.313 2.724,-7.899C4.266,-7.386 5.888,-7.225 7.471,-6.873C7.858,-6.236 7.524,-5.327 7.6,-4.582C6.12,-4.622 4.64,-4.636 3.165,-4.587C3.495,-1.854 6.664,-2.59 8.576,-2.505C8.563,-1.658 8.554,-0.802 8.545,0.049L0,0.049L0,-11.286Z" style="fill:white;fill-rule:nonzero;"/>
        </g>
        <g transform="matrix(1.19865,0,0,1.19865,246.914,-109.68)">
            <path d="M0,-39.068C-10.363,-34.914 -19.84,-27.011 -23.513,-16.197C-24.556,-13.385 -22.911,-10.568 -21.222,-8.406C-22.826,-7.215 -24.426,-6.012 -25.902,-4.662C-26.41,-4.31 -26.61,-3.828 -26.503,-3.209C-20.687,-1.465 -14.705,-3.815 -9.574,-6.485C-7.551,-7.381 -5.193,-9.039 -2.964,-7.799C1.315,-5.108 5.741,-2.66 9.958,0.13C12.632,-0.472 14.83,-2.156 17.152,-3.503C18.057,-3.975 19.011,-4.644 20.089,-4.381C23.615,-3.9 26.842,-2.174 30.382,-1.742C32.24,-1.51 34.202,-1.724 35.855,-2.651C39.965,-4.804 42.943,-8.495 46.776,-11.045C54.754,-5.562 63.746,-1.572 73.141,0.745C75.482,1.303 77.839,1.89 80.255,1.98C85.011,2.247 89.852,1.436 94.542,2.555C96.712,3.197 98.995,2.84 101.218,2.925C102.73,2.831 104.334,3.219 105.76,2.564C104.642,1.953 103.354,1.899 102.127,1.69C84.418,-1.198 66.509,-6.066 51.639,-16.483C48.987,-18.359 45.617,-18.738 42.461,-18.471C39.667,-14.838 37.736,-10.354 33.818,-7.733C31.897,-6.877 29.695,-7.359 27.658,-7.318C26.392,-9.583 24.903,-11.704 23.428,-13.83C18.155,-14.548 13.386,-11.78 8.781,-9.663C6.637,-8.624 4.355,-9.832 2.238,-10.336C2.313,-11.045 2.398,-11.749 2.479,-12.453C4.694,-14.178 7.186,-15.881 8.291,-18.573C9.525,-21.707 10.693,-24.876 11.705,-28.094C12.258,-29.837 12.797,-31.7 12.307,-33.523C11.647,-36.086 9.918,-38.418 7.631,-39.741C5.09,-39.719 2.372,-40.236 0,-39.068M237.521,-39.768C237.432,-37.633 236.897,-34.941 238.769,-33.403C240.418,-31.852 242.736,-32.815 244.653,-33.095C243.984,-31.522 243.405,-29.69 241.711,-28.981C240.73,-29.641 239.839,-30.327 238.948,-31.081L237.165,-31.045C237.967,-29.471 239.259,-27.867 241.131,-27.63C242.959,-27.403 244.564,-28.745 245.411,-30.238C246.748,-32.61 246.659,-35.48 246.124,-38.056C245.856,-39.425 244.653,-40.303 243.851,-41.346C241.622,-41.547 239.304,-41.168 237.521,-39.768M268.946,-41.36C266.985,-40.512 266.003,-38.297 265.781,-36.265C265.513,-34.045 265.959,-31.772 266.806,-29.716C268.188,-27.1 272.779,-27.011 273.893,-29.908C275.32,-33.234 275.32,-37.45 273.046,-40.379C272.111,-41.667 270.328,-41.627 268.946,-41.36M263.24,-41.872C260.967,-40.562 259.095,-38.663 256.866,-37.303C256.108,-38.676 255.261,-40.013 254.37,-41.333C252.81,-41.35 251.294,-41.35 249.734,-41.337C247.417,-37.824 246.837,-33.024 248.932,-29.28C249.868,-27.809 251.874,-27.858 253.344,-27.359C254.192,-28.112 255.083,-28.794 255.796,-29.685C256.777,-31.567 256.108,-33.813 256.822,-35.77C258.114,-36.714 259.719,-37.151 261.19,-37.847C261.19,-34.566 261.145,-31.29 260.967,-28.014C261.725,-28.072 262.483,-28.125 263.24,-28.174C263.106,-32.743 263.597,-37.312 263.24,-41.872M292.525,-49.489C287.355,-48.959 282.585,-46.227 279.375,-42.197C277.727,-40.325 276.969,-37.811 276.969,-35.355C276.924,-31.094 279.064,-26.962 282.273,-24.23C285.125,-21.827 288.871,-20.944 292.436,-20.262C297.607,-19.335 303,-20.401 307.636,-22.812C311.202,-24.791 314.099,-28.152 314.991,-32.199C315.436,-34.397 315.704,-36.777 314.723,-38.89C313.52,-41.627 311.737,-44.194 309.151,-45.808C304.382,-49.12 298.275,-50.363 292.525,-49.489M-232.734,-53.684C-220.681,-53.229 -208.624,-53.894 -196.567,-53.519C-189.279,-53.47 -181.991,-53.773 -174.703,-53.586C-165.931,-53.332 -157.159,-53.813 -148.387,-53.595C-139.481,-53.377 -130.58,-53.796 -121.678,-53.581C-115.741,-53.425 -109.804,-53.612 -103.866,-53.622C-98.219,-53.733 -92.576,-53.457 -86.928,-53.528C-80.082,-53.59 -73.23,-53.746 -66.384,-53.519C-57.327,-53.479 -48.265,-53.786 -39.208,-53.532C-24.057,-53.684 -8.901,-53.577 6.253,-53.608C18.289,-53.55 30.324,-53.742 42.354,-53.501C48.599,-53.524 54.843,-53.671 61.088,-53.626C72.227,-53.412 83.371,-53.635 94.51,-53.608C159.147,-53.617 223.77,-53.586 288.402,-53.626C300.972,-53.782 313.542,-53.256 326.067,-53.729C325.799,-30.88 325.889,-8.027 326.112,14.826C274.451,14.826 222.833,14.768 171.186,14.732C81.285,14.706 -8.612,14.786 -98.513,14.781C-143.243,14.786 -187.968,14.697 -232.698,14.688C-232.529,11.546 -232.444,8.403 -232.52,5.261C-232.975,-6.048 -232.458,-17.36 -232.716,-28.669C-232.587,-34.321 -232.872,-39.968 -232.604,-45.616C-232.449,-48.308 -232.591,-50.996 -232.734,-53.684" style="fill:white;fill-rule:nonzero;"/>
        </g>
        <g transform="matrix(2.51934,0,0,2.51934,526.27,-132.215)">
            <path d="M0,-10.591C1.516,-11.108 3.12,-9.758 3.209,-8.233C3.343,-5.897 3.833,-3.183 2.317,-1.173C0.936,0.517 -1.962,-1.284 -1.516,-3.267C-1.204,-5.652 -2.541,-9.102 0,-10.591" style="fill:white;fill-rule:nonzero;"/>
        </g>
        <g transform="matrix(1.19865,0,0,1.19865,241.363,-127.637)">
            <path d="M0,-15.64C3.178,-17.731 7.002,-18.355 10.622,-19.273C10.823,-16.161 10.987,-12.747 9.236,-10.001C8.157,-8.223 6.16,-7.39 4.663,-6.039C1.199,-3.093 -1.618,0.915 -6.084,2.435C-7.867,2.961 -9.931,3.633 -11.665,2.604C-12.931,1.949 -14.117,0.201 -13.181,-1.154C-9.877,-6.832 -5.474,-11.954 0,-15.64" style="fill:white;fill-rule:nonzero;"/>
        </g>
        <g transform="matrix(1.19865,0,0,1.19865,155.407,-75.6174)">
            <path d="M0,3.111C-0.054,4.55 1.498,5.058 2.447,5.772C2.643,4.208 3.619,2.206 2.273,0.909C0.94,0.075 -0.183,1.925 0,3.111M3.348,-4.177C4.114,-4.115 4.876,-4.057 5.647,-3.998C5.572,-0.268 5.549,3.463 5.532,7.189C3.383,7.043 1.114,7.288 -0.923,6.485C-3.25,5.009 -2.996,1.345 -1.252,-0.495C-0.014,-1.761 1.814,-0.826 3.281,-0.579C3.298,-1.784 3.33,-2.983 3.348,-4.177" style="fill:white;fill-rule:nonzero;"/>
        </g>
        <g transform="matrix(1.19865,0,0,1.19865,-30.9311,-66.4753)">
            <path d="M0,-11.808C0.767,-11.742 1.538,-11.679 2.309,-11.613C3.575,-9.558 4.716,-7.418 6.102,-5.434C6.165,-5.448 6.28,-5.47 6.343,-5.484C6.525,-7.565 6.45,-9.66 6.49,-11.746C7.234,-11.746 7.983,-11.75 8.728,-11.75C8.732,-7.832 8.754,-3.914 8.688,0C4.925,-0.629 3.98,-4.766 2.05,-7.436C2.01,-5.131 2.095,-2.823 1.876,-0.523C1.261,-0.513 0.646,-0.504 0.027,-0.487C-0.111,-4.257 -0.031,-8.033 0,-11.808" style="fill:white;fill-rule:nonzero;"/>
        </g>
        <g transform="matrix(1.19865,0,0,1.19865,0.858858,-66.7858)">
            <path d="M0,-11.465C0.909,-11.46 1.823,-11.42 2.732,-11.398C3.562,-8.87 4.458,-6.361 5.344,-3.852C6.258,-6.357 7.069,-8.902 7.917,-11.429C8.799,-11.443 9.682,-11.451 10.564,-11.456C9.24,-7.716 7.907,-3.986 6.597,-0.245C5.741,-0.294 4.77,0 3.985,-0.313C2.536,-3.986 1.333,-7.752 0,-11.465" style="fill:white;fill-rule:nonzero;"/>
        </g>
        <g transform="matrix(1.19865,0,0,1.19865,22.4709,-66.263)">
            <path d="M0,-11.905C0.851,-11.905 1.707,-11.905 2.563,-11.901C2.559,-7.938 2.572,-3.971 2.567,0C1.667,-0.009 0.771,-0.013 -0.125,-0.017C-0.022,-3.98 0,-7.943 0,-11.905" style="fill:white;fill-rule:nonzero;"/>
        </g>
        <g transform="matrix(1.19865,0,0,1.19865,26.884,-66.2684)">
            <path d="M0,-11.923C0.869,-11.919 1.743,-11.905 2.617,-11.897L2.617,0C1.729,-0.004 0.847,-0.009 -0.036,-0.009C-0.022,-3.981 -0.018,-7.951 0,-11.923" style="fill:white;fill-rule:nonzero;"/>
        </g>
        <g transform="matrix(1.19865,0,0,1.19865,34.5295,-77.0332)">
            <path d="M0,5.379C0.343,6.284 1.315,6.627 2.091,7.06C2.389,5.754 2.866,4.346 2.309,3.039C1.997,2.201 1.124,1.8 0.468,1.283C-0.053,2.558 -0.543,4.025 0,5.379M2.924,-3.143C3.655,-3.005 4.391,-2.867 5.122,-2.725C5.273,0.944 5.171,4.622 5.171,8.295C3.396,8.236 1.605,8.522 -0.151,8.254C-2.536,7.612 -3.423,4.684 -2.71,2.518C-2.34,1.381 -1.564,0.035 -0.201,0.035C0.852,0.053 1.872,0.392 2.893,0.628C2.902,-0.634 2.915,-1.891 2.924,-3.143" style="fill:white;fill-rule:nonzero;"/>
        </g>
        <g transform="matrix(1.19865,0,0,1.19865,46.0062,-65.6961)">
            <path d="M0,-12.378L2.34,-12.378C2.38,-9.682 1.966,-6.909 2.719,-4.274C2.897,-3.151 4.475,-3.098 5.353,-3.339C6.365,-3.65 6.343,-4.81 6.441,-5.67C6.548,-7.926 6.458,-10.186 6.485,-12.44C7.261,-12.405 8.041,-12.36 8.816,-12.32C8.794,-9.405 9.004,-6.468 8.638,-3.566C7.501,-0.076 1.502,0.062 0.231,-3.397C-0.263,-6.36 0.071,-9.388 0,-12.378" style="fill:white;fill-rule:nonzero;"/>
        </g>
        <g transform="matrix(1.19865,0,0,1.19865,69.2102,-66.3477)">
            <path d="M0,-11.808C0.838,-11.834 1.68,-11.857 2.523,-11.879C2.652,-7.899 2.902,-3.905 2.554,0.071C1.694,0.067 0.838,0.057 -0.018,0.057C-0.018,-3.901 -0.004,-7.854 0,-11.808" style="fill:white;fill-rule:nonzero;"/>
        </g>
        <g transform="matrix(1.19865,0,0,1.19865,107.785,-66.984)">
            <path d="M0,-10.992C1.587,-11.491 3.356,-11.505 4.957,-11.063C6.04,-10.39 6.383,-9.044 6.967,-7.978C6.205,-8.001 5.447,-8.023 4.694,-8.054C3.415,-9.16 1.494,-9.596 0.236,-8.197C2.118,-7.399 4.297,-7.159 5.911,-5.826C7.564,-4.395 7.025,-1.395 5.095,-0.468C3.169,0.513 0.941,0.054 -1.016,-0.561C-1.493,-1.604 -1.983,-2.635 -2.469,-3.669C-1.703,-3.731 -0.936,-3.798 -0.165,-3.86C0.655,-3.187 1.511,-2.558 2.358,-1.921C3.259,-2.433 4.15,-2.977 4.983,-3.593C3.254,-4.439 1.289,-4.774 -0.33,-5.844C-2.072,-6.984 -2.17,-10.274 0,-10.992" style="fill:white;fill-rule:nonzero;"/>
        </g>
        <g transform="matrix(1.19865,0,0,1.19865,117.088,-66.2678)">
            <path d="M0,-11.901L2.594,-11.901C2.629,-7.934 2.634,-3.971 2.612,-0.005C1.738,-0.005 0.864,-0.005 -0.009,0C-0.009,-3.967 -0.005,-7.934 0,-11.901" style="fill:white;fill-rule:nonzero;"/>
        </g>
        <g transform="matrix(1.19865,0,0,1.19865,-7.39062,-68.1054)">
            <path d="M0,-9.325C0.62,-9.606 1.23,-9.895 1.845,-10.181C2.322,-8.915 2.982,-7.658 3.013,-6.272C2.973,-5.176 2.255,-4.244 2.131,-3.156C2.309,-1.703 3.174,-0.464 3.735,0.856C2.532,0.828 1.333,0.797 0.129,0.776C0.107,-2.591 -1.636,-6.094 0,-9.325" style="fill:white;fill-rule:nonzero;"/>
        </g>
        <g transform="matrix(1.19865,0,0,1.19865,-14.812,-69.3294)">
            <path d="M0,-4.257C-1.573,-3.445 -1.194,-0.944 0.076,-0.009C0.914,0.405 1.556,-0.405 2.051,-0.963C3.094,-2.286 1.85,-5.05 0,-4.257M0.036,-6.494C1.729,-6.744 3.624,-5.95 4.44,-4.403C5.287,-2.568 5.006,-0.089 3.29,1.159C1.721,2.487 -0.691,2.153 -2.22,0.949C-4.667,-1.279 -3.477,-6.218 0.036,-6.494" style="fill:white;fill-rule:nonzero;"/>
        </g>
        <g transform="matrix(1.19865,0,0,1.19865,15.9843,-73.351)">
            <path d="M0,2.022C-0.784,2.486 0.071,3.301 0.495,3.68C0.932,3.284 1.364,2.882 1.792,2.482C1.275,2.058 0.602,1.215 0,2.022M-1.556,-3.054C-0.013,-2.997 1.627,-3.304 3.089,-2.675C3.82,-2.457 3.807,-1.628 3.945,-1.013C4.244,1.086 4.164,3.212 4.302,5.326C1.903,5.254 -0.495,5.085 -2.875,4.751C-2.844,3.659 -2.804,2.566 -2.781,1.479C-1.306,0.529 0.401,0.084 2.024,-0.527C0.419,-1.343 -1.373,-0.719 -3.035,-0.5C-2.545,-1.356 -2.05,-2.204 -1.556,-3.054" style="fill:white;fill-rule:nonzero;"/>
        </g>
        <g transform="matrix(1.19865,0,0,1.19865,58.4656,-66.7916)">
            <path d="M0,-8.589C1.734,-8.362 3.481,-8.429 5.224,-8.483C6.173,-8.527 7.208,-7.93 7.377,-6.941C7.636,-4.716 7.488,-2.465 7.502,-0.223C6.74,-0.205 5.978,-0.183 5.22,-0.156C5.122,-2.269 5.612,-4.515 4.774,-6.521C3.887,-7.047 2.719,-6.053 2.532,-5.135C2.157,-3.454 2.309,-1.707 2.126,0C1.426,-0.085 0.731,-0.165 0.036,-0.24C0.022,-3.022 0.018,-5.808 0,-8.589" style="fill:white;fill-rule:nonzero;"/>
        </g>
        <g transform="matrix(1.19865,0,0,1.19865,75.7711,-69.1525)">
            <path d="M0,-4.137C0.388,-3.41 0.856,-2.363 1.895,-2.684C2.964,-2.658 3.325,-4.043 2.456,-4.605C1.698,-5.394 0.678,-4.618 0,-4.137M-1.021,-5.71C0.071,-6.883 1.908,-6.892 3.307,-6.334C4.925,-5.448 5.287,-3.473 5.794,-1.86C3.78,-1.672 1.756,-1.641 -0.258,-1.44C1.097,0.102 3.236,-0.732 4.939,-0.981C4.845,2.233 0.308,2.755 -1.458,0.628C-2.71,-1.271 -2.607,-4.03 -1.021,-5.71" style="fill:white;fill-rule:nonzero;"/>
        </g>
        <g transform="matrix(1.19865,0,0,1.19865,82.1987,-69.6346)">
            <path d="M0,-3.601C0.887,-5.451 2.955,-6.73 5.023,-6.186C6.396,-5.959 7.333,-4.854 7.997,-3.712C6.173,-3.869 4.377,-4.221 2.554,-4.372C4.399,-3.177 7.234,-2.883 8.063,-0.57C7.783,2.167 3.98,3.129 1.908,1.765C0.892,1.124 0.882,-0.231 1.431,-1.185C2.375,-0.672 3.276,-0.076 4.132,0.58C4.68,0.272 5.237,-0.031 5.79,-0.33C3.588,-0.837 1.466,-1.836 0,-3.601" style="fill:white;fill-rule:nonzero;"/>
        </g>
        <g transform="matrix(1.19865,0,0,1.19865,92.7829,-70.5475)">
            <path d="M0,-2.229C-0.735,-4.244 1.547,-5.871 3.388,-5.594C5.215,-5.826 6.236,-4.124 7.234,-2.916C5.447,-3.125 3.673,-3.418 1.876,-3.557C3.41,-2.572 5.429,-2.318 6.664,-0.905C7.89,0.642 6.285,2.603 4.68,2.951C2.456,3.642 0.009,2.21 -0.615,-0.004C1.301,0.338 3.214,0.959 5.188,0.736C3.499,-0.281 0.994,-0.298 0,-2.229" style="fill:white;fill-rule:nonzero;"/>
        </g>
        <g transform="matrix(1.19865,0,0,1.19865,124.487,-65.9246)">
            <path d="M0,-5.867C-0.379,-4.263 1.056,-3.251 2.099,-2.346C2.46,-3.719 3.521,-5.252 2.683,-6.63C2.13,-7.958 -0.223,-7.289 0,-5.867M-0.022,-9.13C1.823,-9.437 3.708,-9.152 5.572,-9.206C5.549,-6.054 5.893,-2.854 5.255,0.262C3.633,3.57 -2.01,2.776 -2.71,-0.861C-1.186,-0.567 0.281,0.083 1.85,0.142C2.911,0.154 3.405,-0.852 3.847,-1.641C2.519,-1.32 1.199,-0.946 -0.116,-0.572C-1.244,-1.624 -2.251,-2.912 -2.465,-4.481C-2.822,-6.317 -2.077,-8.72 -0.022,-9.13" style="fill:white;fill-rule:nonzero;"/>
        </g>
        <g transform="matrix(1.19865,0,0,1.19865,132.817,-67.6146)">
            <path d="M0,-7.796C2.291,-7.671 4.787,-8.34 6.873,-7.087C7.408,-4.596 7.51,-2.046 7.417,0.495C6.726,0.441 6.04,0.401 5.353,0.361C4.992,-2.006 4.8,-4.4 4.359,-6.757C1.729,-5.273 2.309,-1.979 2.264,0.544C1.52,0.54 0.775,0.54 0.036,0.544C0.018,-2.233 0.009,-5.015 0,-7.796" style="fill:white;fill-rule:nonzero;"/>
        </g>
        <g transform="matrix(1.19865,0,0,1.19865,145.415,-69.7884)">
            <path d="M0,-3.045C0.664,-2.31 2.104,-1.636 2.755,-2.724C3.477,-3.58 2.255,-4.547 1.369,-4.382C0.611,-4.356 0.375,-3.558 0,-3.045M-2.831,-2.854C-1.743,-4.226 -0.664,-6.08 1.284,-6.205C2.322,-6.143 3.53,-5.991 4.217,-5.1C5.037,-4.008 5.153,-2.586 5.42,-1.284C3.441,-1.137 0.905,-1.649 -0.343,0.334C1.484,0.165 3.25,-0.344 5.037,-0.74C4.966,2.157 1.235,3.16 -0.9,1.809C-2.211,0.624 -2.309,-1.271 -2.831,-2.854" style="fill:white;fill-rule:nonzero;"/>
        </g>
        <g transform="matrix(1.19865,0,0,1.19865,-58.901,-313.973)">
            <path d="M0,-0.429C1.6,-10.98 11.754,-19.555 22.461,-19.132C207.295,-19.115 392.13,-19.128 576.961,-19.123C580.081,-19.092 583.29,-19.36 586.365,-18.45C593.898,-16.52 600.272,-10.538 602.367,-3.032C604.329,3.815 602.769,10.973 603.437,17.945C591.804,19.126 580.125,17.512 568.491,18.261C557.526,18.422 546.517,18.19 535.507,18.043C523.472,18.502 511.437,18.212 499.401,18.065C493.919,18.051 488.392,17.967 482.909,18.332C473.415,18.733 463.876,18.025 454.382,17.993C449.346,17.926 444.309,18.288 439.227,18.345C429.131,18.591 419.021,18.198 408.912,18.354C398.215,18.412 387.517,18.248 376.823,18.212C364.494,18.078 352.17,18.337 339.841,18.274C328.403,18.341 316.965,17.926 305.527,18.167C293.033,18.323 280.535,18.395 268.041,18.1C263.138,17.922 258.239,18.359 253.336,18.395C247.693,18.546 242.045,18.355 236.407,18.23C195.546,18.466 154.689,18.279 113.829,18.114C98.379,18.595 82.917,18.274 67.463,18.207C59.444,17.673 51.42,18.533 43.397,18.288C36.123,18.288 28.844,18.537 21.574,18.212C14.331,18.288 7.078,18.626 -0.156,18.1C-0.205,11.927 -0.503,5.736 -0.004,-0.429L0,-0.429Z" style="fill:rgb(221,10,55);fill-rule:nonzero;"/>
        </g>
        <g transform="matrix(1.19865,0,0,1.19865,142.023,-7.67256)">
            <path d="M0,-54.675C0.521,-53.092 0.619,-51.197 1.93,-50.012C4.065,-48.661 7.796,-49.664 7.867,-52.562C6.08,-52.165 4.314,-51.656 2.487,-51.487C3.735,-53.471 6.271,-52.958 8.25,-53.106C7.983,-54.407 7.867,-55.829 7.047,-56.921C6.36,-57.813 5.152,-57.964 4.114,-58.027C2.166,-57.902 1.087,-56.047 0,-54.675M-7.68,-57.804C-7.671,-55.023 -7.663,-52.24 -7.645,-49.464C-6.905,-49.468 -6.16,-49.468 -5.416,-49.464C-5.372,-51.987 -5.951,-55.28 -3.321,-56.765C-2.88,-54.407 -2.688,-52.014 -2.327,-49.647C-1.641,-49.607 -0.954,-49.567 -0.263,-49.513C-0.169,-52.054 -0.272,-54.604 -0.807,-57.095C-2.893,-58.348 -5.389,-57.679 -7.68,-57.804M-14.652,-57.728C-16.707,-57.318 -17.451,-54.915 -17.094,-53.078C-16.88,-51.51 -15.873,-50.222 -14.745,-49.17C-13.43,-49.544 -12.111,-49.918 -10.783,-50.239C-11.224,-49.45 -11.719,-48.444 -12.78,-48.456C-14.349,-48.515 -15.815,-49.165 -17.339,-49.459C-16.64,-45.822 -10.997,-45.029 -9.374,-48.336C-8.737,-51.451 -9.08,-54.653 -9.058,-57.804C-10.921,-57.75 -12.806,-58.035 -14.652,-57.728M-41.08,-54.684C-40.085,-52.753 -37.581,-52.736 -35.891,-51.719C-37.866,-51.496 -39.778,-52.116 -41.695,-52.459C-41.071,-50.244 -38.624,-48.813 -36.399,-49.504C-34.794,-49.852 -33.19,-51.813 -34.416,-53.36C-35.65,-54.773 -37.669,-55.027 -39.203,-56.012C-37.407,-55.873 -35.633,-55.579 -33.845,-55.37C-34.844,-56.578 -35.864,-58.28 -37.692,-58.049C-39.533,-58.325 -41.815,-56.698 -41.08,-54.684M-49.91,-55.294C-48.443,-53.529 -46.321,-52.53 -44.12,-52.023C-44.672,-51.724 -45.229,-51.421 -45.778,-51.113C-46.633,-51.769 -47.534,-52.365 -48.479,-52.878C-49.027,-51.924 -49.018,-50.57 -48.002,-49.928C-45.929,-48.564 -42.127,-49.527 -41.846,-52.263C-42.675,-54.576 -45.51,-54.87 -47.355,-56.066C-45.533,-55.913 -43.736,-55.562 -41.913,-55.405C-42.577,-56.547 -43.513,-57.653 -44.886,-57.879C-46.955,-58.423 -49.022,-57.144 -49.91,-55.294M-56.292,-57.001C-57.879,-55.321 -57.982,-52.562 -56.729,-50.663C-54.964,-48.536 -50.427,-49.058 -50.333,-52.272C-52.036,-52.023 -54.175,-51.189 -55.53,-52.731C-53.516,-52.932 -51.492,-52.963 -49.478,-53.151C-49.985,-54.764 -50.347,-56.738 -51.964,-57.625C-53.364,-58.183 -55.201,-58.174 -56.292,-57.001M-69.709,-57.91C-69.691,-55.129 -69.687,-52.343 -69.674,-49.562C-68.979,-49.487 -68.283,-49.405 -67.583,-49.321C-67.4,-51.029 -67.552,-52.776 -67.178,-54.456C-66.99,-55.374 -65.823,-56.368 -64.936,-55.842C-64.098,-53.836 -64.588,-51.59 -64.49,-49.477C-63.732,-49.504 -62.97,-49.527 -62.208,-49.544C-62.221,-51.786 -62.074,-54.037 -62.333,-56.261C-62.502,-57.251 -63.536,-57.848 -64.485,-57.804C-66.228,-57.75 -67.976,-57.684 -69.709,-57.91M-106.706,-57.848C-107.201,-56.997 -107.695,-56.15 -108.186,-55.294C-106.523,-55.513 -104.731,-56.137 -103.126,-55.321C-104.749,-54.71 -106.456,-54.265 -107.932,-53.315C-107.954,-52.228 -107.994,-51.135 -108.025,-50.043C-105.645,-49.709 -103.247,-49.539 -100.849,-49.468C-100.987,-51.581 -100.907,-53.707 -101.206,-55.807C-101.344,-56.422 -101.33,-57.251 -102.061,-57.469C-103.523,-58.098 -105.164,-57.79 -106.706,-57.848M-130.807,-57.933C-134.319,-57.656 -135.509,-52.718 -133.062,-50.489C-131.534,-49.285 -129.122,-48.951 -127.553,-50.279C-125.837,-51.528 -125.556,-54.006 -126.403,-55.842C-127.219,-57.389 -129.113,-58.183 -130.807,-57.933M-124.651,-59.742C-126.287,-56.511 -124.544,-53.007 -124.522,-49.642C-123.318,-49.62 -122.12,-49.589 -120.916,-49.562C-121.478,-50.881 -122.342,-52.12 -122.521,-53.573C-122.396,-54.661 -121.678,-55.593 -121.638,-56.69C-121.669,-58.075 -122.329,-59.332 -122.806,-60.599C-123.421,-60.313 -124.032,-60.024 -124.651,-59.742M-20.803,-60.785C-20.808,-56.819 -20.812,-52.852 -20.812,-48.884C-19.938,-48.889 -19.064,-48.889 -18.191,-48.889C-18.168,-52.856 -18.173,-56.819 -18.208,-60.785L-20.803,-60.785M-28.563,-60.474C-30.734,-59.756 -30.636,-56.466 -28.893,-55.325C-27.275,-54.255 -25.309,-53.921 -23.58,-53.074C-24.414,-52.459 -25.305,-51.915 -26.205,-51.403C-27.052,-52.04 -27.908,-52.669 -28.728,-53.342C-29.499,-53.279 -30.266,-53.212 -31.033,-53.151C-30.547,-52.116 -30.057,-51.086 -29.58,-50.043C-27.623,-49.428 -25.394,-48.969 -23.468,-49.949C-21.539,-50.877 -20.999,-53.877 -22.653,-55.308C-24.266,-56.64 -26.446,-56.881 -28.327,-57.679C-27.07,-59.078 -25.149,-58.642 -23.87,-57.536C-23.116,-57.505 -22.358,-57.483 -21.596,-57.46C-22.18,-58.526 -22.523,-59.872 -23.606,-60.545C-25.207,-60.987 -26.977,-60.973 -28.563,-60.474M-60.746,-60.759C-60.75,-56.805 -60.764,-52.852 -60.764,-48.894C-59.908,-48.894 -59.052,-48.884 -58.191,-48.88C-57.844,-52.856 -58.093,-56.85 -58.223,-60.83C-59.065,-60.808 -59.908,-60.785 -60.746,-60.759M-80.104,-60.785C-80.033,-57.795 -80.367,-54.768 -79.872,-51.804C-78.602,-48.345 -72.602,-48.484 -71.466,-51.974C-71.1,-54.875 -71.31,-57.813 -71.287,-60.728C-72.063,-60.768 -72.843,-60.813 -73.619,-60.848C-73.646,-58.593 -73.556,-56.332 -73.663,-54.077C-73.761,-53.217 -73.739,-52.058 -74.75,-51.746C-75.629,-51.505 -77.207,-51.559 -77.385,-52.682C-78.138,-55.317 -77.724,-58.089 -77.764,-60.785L-80.104,-60.785M-86.754,-61.008C-86.763,-59.756 -86.777,-58.499 -86.786,-57.238C-87.807,-57.474 -88.827,-57.813 -89.879,-57.83C-91.243,-57.83 -92.019,-56.485 -92.389,-55.348C-93.102,-53.182 -92.215,-50.253 -89.83,-49.611C-88.074,-49.344 -86.282,-49.629 -84.508,-49.571C-84.508,-53.243 -84.405,-56.921 -84.557,-60.589C-85.288,-60.733 -86.023,-60.87 -86.754,-61.008M-96.057,-60.808C-96.075,-56.836 -96.079,-52.864 -96.093,-48.894C-95.21,-48.894 -94.328,-48.889 -93.44,-48.884L-93.44,-60.781C-94.314,-60.79 -95.188,-60.804 -96.057,-60.808M-99.739,-60.785C-99.739,-56.823 -99.761,-52.861 -99.864,-48.898C-98.968,-48.894 -98.072,-48.889 -97.171,-48.88C-97.167,-52.852 -97.18,-56.819 -97.176,-60.781C-98.032,-60.785 -98.888,-60.785 -99.739,-60.785M-117.769,-60.781C-116.436,-57.069 -115.233,-53.302 -113.784,-49.629C-113,-49.317 -112.028,-49.611 -111.172,-49.562C-109.862,-53.302 -108.529,-57.032 -107.205,-60.773C-108.087,-60.768 -108.97,-60.759 -109.853,-60.745C-110.7,-58.218 -111.511,-55.673 -112.425,-53.168C-113.312,-55.678 -114.208,-58.187 -115.037,-60.714C-115.946,-60.737 -116.86,-60.777 -117.769,-60.781M-144.291,-60.865C-144.322,-57.09 -144.402,-53.315 -144.264,-49.544C-143.644,-49.562 -143.029,-49.571 -142.414,-49.579C-142.195,-51.88 -142.28,-54.189 -142.24,-56.493C-140.31,-53.823 -139.365,-49.687 -135.603,-49.058C-135.536,-52.972 -135.559,-56.89 -135.563,-60.808C-136.307,-60.808 -137.056,-60.804 -137.8,-60.804C-137.841,-58.717 -137.765,-56.622 -137.948,-54.541C-138.01,-54.528 -138.126,-54.505 -138.188,-54.491C-139.575,-56.476 -140.716,-58.614 -141.981,-60.67C-142.753,-60.737 -143.524,-60.799 -144.291,-60.865M14.513,-60.862C14.495,-59.667 14.464,-58.468 14.446,-57.264C12.979,-57.509 11.152,-58.446 9.913,-57.18C8.17,-55.339 7.916,-51.675 10.243,-50.199C12.28,-49.397 14.549,-49.642 16.697,-49.495C16.715,-53.222 16.737,-56.952 16.813,-60.683C16.042,-60.741 15.28,-60.799 14.513,-60.862M-145.227,-138.785C-145.084,-136.098 -144.941,-133.41 -145.097,-130.717C-145.365,-125.07 -145.08,-119.423 -145.209,-113.771C-144.95,-102.462 -145.467,-91.15 -145.013,-79.841C-144.937,-76.698 -145.021,-73.556 -145.191,-70.413C-100.461,-70.404 -55.735,-70.316 -11.005,-70.321C78.896,-70.316 168.792,-70.396 258.693,-70.369C310.341,-70.333 361.958,-70.276 413.619,-70.276C413.396,-93.129 413.307,-115.982 413.574,-138.83C401.049,-138.358 388.479,-138.883 375.909,-138.728C311.277,-138.688 246.654,-138.719 182.018,-138.71C170.878,-138.737 159.734,-138.514 148.596,-138.728C142.351,-138.772 136.106,-138.625 129.861,-138.603C117.831,-138.843 105.796,-138.652 93.761,-138.71C78.606,-138.678 63.451,-138.785 48.3,-138.634C39.243,-138.888 30.181,-138.58 21.124,-138.621C14.277,-138.848 7.426,-138.692 0.579,-138.63C-5.068,-138.558 -10.711,-138.835 -16.359,-138.723C-22.296,-138.714 -28.233,-138.527 -34.17,-138.683C-43.072,-138.897 -51.974,-138.478 -60.879,-138.696C-69.651,-138.915 -78.424,-138.433 -87.196,-138.688C-94.483,-138.875 -101.771,-138.571 -109.059,-138.621C-121.117,-138.995 -133.174,-138.331 -145.227,-138.785M33.582,-154.948L33.582,-143.613L42.126,-143.613C42.135,-144.464 42.145,-145.32 42.158,-146.167C40.246,-146.252 37.076,-145.516 36.747,-148.249C38.222,-148.298 39.702,-148.284 41.182,-148.244C41.106,-148.988 41.44,-149.898 41.052,-150.535C39.47,-150.887 37.848,-151.048 36.305,-151.56C38.222,-151.975 40.188,-152.091 42.135,-152.278C42.122,-153.178 42.109,-154.079 42.1,-154.979C39.26,-154.997 36.421,-154.935 33.582,-154.948M22.839,-154.966C22.817,-151.182 22.812,-147.393 22.831,-143.609C23.945,-143.609 25.059,-143.6 26.178,-143.595C26.245,-145.177 26.365,-146.756 26.535,-148.329C27.368,-146.804 28.139,-145.244 28.857,-143.657C30.176,-143.617 31.5,-143.604 32.824,-143.604C32.227,-145.062 31.607,-146.506 31.028,-147.972C32.057,-149.604 33.479,-151.85 32.111,-153.691C29.437,-155.661 25.915,-154.801 22.839,-154.966M2.661,-154.935C2.576,-153.268 3.65,-151.917 5.264,-151.565C5.291,-148.917 5.273,-146.265 5.273,-143.617C6.41,-143.613 7.546,-143.613 8.683,-143.609C8.696,-146.314 8.701,-149.02 8.723,-151.73C9.436,-151.939 10.336,-151.904 10.827,-152.563C11.348,-153.237 11.295,-154.146 11.478,-154.935C8.54,-154.993 5.598,-154.993 2.661,-154.935M-3.348,-154.957C-4.471,-151.164 -5.599,-147.375 -6.758,-143.591C-5.853,-143.604 -4.948,-143.613 -4.039,-143.622C-3.584,-145.093 -2.305,-145.975 -0.789,-146.056C-0.486,-145.302 -0.357,-144.3 0.508,-143.952C1.631,-143.479 2.893,-143.595 4.083,-143.475C2.968,-147.313 1.76,-151.124 0.588,-154.948C-0.722,-154.948 -2.037,-154.952 -3.348,-154.957M-16.787,-154.984C-16.787,-151.191 -16.792,-147.402 -16.796,-143.613C-15.762,-143.609 -14.723,-143.609 -13.689,-143.604C-13.854,-145.73 -13.88,-147.861 -14.001,-149.983C-12.74,-147.954 -11.532,-145.891 -10.346,-143.814C-9.298,-143.711 -8.251,-143.626 -7.204,-143.542C-7.19,-147.362 -7.194,-151.177 -7.204,-154.993C-8.26,-154.975 -9.312,-154.948 -10.364,-154.917C-10.212,-153.187 -10.087,-151.458 -9.98,-149.724C-11.153,-151.44 -12.325,-153.156 -13.386,-154.939C-14.518,-154.966 -15.655,-154.997 -16.787,-154.984M-56.903,-154.984C-56.908,-151.191 -56.921,-147.402 -56.921,-143.609C-54.167,-143.742 -51.06,-143.047 -48.648,-144.745C-45.942,-147.085 -46.054,-152.06 -49.049,-154.119C-51.474,-155.341 -54.287,-154.908 -56.903,-154.984M-93.053,-154.975C-93.088,-151.186 -93.115,-147.402 -93.12,-143.613L-89.442,-143.613C-89.34,-145.079 -89.237,-146.546 -89.139,-148.012C-88.266,-146.582 -87.49,-145.097 -86.714,-143.613C-85.493,-143.609 -84.267,-143.609 -83.042,-143.609C-83.617,-145.169 -84.205,-146.724 -84.793,-148.28C-84.231,-148.859 -83.666,-149.439 -83.095,-150.009C-83.318,-151.396 -82.926,-153.25 -84.227,-154.181C-86.995,-155.403 -90.115,-154.877 -93.053,-154.975M-115.514,-154.997C-115.964,-151.222 -116.004,-147.406 -115.91,-143.609C-114.68,-143.604 -113.45,-143.613 -112.22,-143.622C-112.202,-145.142 -112.104,-146.662 -111.756,-148.142C-111.181,-147.994 -110.352,-148.195 -110.067,-147.513C-109.732,-146.247 -109.835,-144.924 -109.777,-143.631C-108.547,-143.613 -107.321,-143.604 -106.091,-143.613C-106.082,-147.388 -106.091,-151.168 -106.131,-154.948C-107.339,-154.966 -108.542,-154.979 -109.75,-154.984C-109.781,-153.575 -109.817,-152.167 -109.871,-150.758C-110.62,-150.762 -111.368,-150.767 -112.122,-150.767C-112.148,-152.171 -112.17,-153.575 -112.18,-154.975C-113.294,-154.979 -114.404,-154.988 -115.514,-154.997M-124.771,-154.97C-124.838,-153.361 -123.925,-151.97 -122.427,-151.396C-122.414,-148.801 -122.436,-146.207 -122.427,-143.613C-121.157,-143.613 -119.891,-143.613 -118.621,-143.617C-118.629,-146.265 -118.647,-148.908 -118.607,-151.551C-116.994,-151.895 -116.209,-153.361 -115.928,-154.855C-118.875,-154.979 -121.821,-155.006 -124.771,-154.97M-133.932,-144.95C-132.644,-143.39 -130.308,-143.096 -128.422,-143.488C-127.089,-143.863 -125.427,-144.709 -125.422,-146.305C-125.182,-149.189 -125.369,-152.095 -125.329,-154.988C-126.296,-154.975 -127.259,-154.957 -128.226,-154.944C-128.257,-152.064 -127.999,-149.158 -128.551,-146.31C-129.242,-146.319 -129.933,-146.323 -130.624,-146.327C-131.083,-149.189 -130.869,-152.095 -130.892,-154.979L-134.685,-154.979C-134.52,-151.65 -135.354,-148.097 -133.932,-144.95M11.843,-154.984C11.798,-151.828 11.558,-148.645 12.026,-145.512C13.688,-142.744 18.119,-142.673 20.356,-144.772C21.707,-147.986 20.972,-151.57 21.105,-154.948C20.121,-154.966 19.131,-154.979 18.15,-154.984C17.927,-151.97 19.122,-148.552 17.094,-145.931C16.314,-146.488 15.404,-147.068 15.226,-148.092C14.812,-150.37 15.467,-152.675 15.311,-154.966C14.152,-154.975 12.998,-154.984 11.843,-154.984M-26.977,-153.357C-28.309,-150.821 -28.256,-147.607 -26.958,-145.066C-25.911,-143.497 -23.745,-143.506 -22.078,-143.756C-20.678,-144.041 -19.274,-143.831 -17.906,-143.497C-17.852,-145.69 -17.875,-147.883 -17.866,-150.071C-19.697,-150.094 -21.534,-150.098 -23.366,-149.956C-23.179,-148.489 -22.715,-147.081 -22.216,-145.695C-24.824,-146.778 -24.422,-149.849 -24.083,-152.1L-22.408,-152.403C-21.958,-151.832 -21.512,-151.262 -21.062,-150.687C-19.965,-150.861 -18.873,-151.03 -17.776,-151.208C-18.503,-155.341 -24.494,-156.611 -26.977,-153.357M-42.96,-149.581C-41.218,-148.151 -38.931,-147.62 -37.099,-146.305C-38.624,-146.26 -40.068,-146.76 -41.378,-147.487C-42.408,-147.255 -43.433,-147.014 -44.454,-146.738C-43.594,-145.538 -42.577,-144.362 -41.16,-143.814C-38.829,-142.918 -35.263,-143.247 -34.313,-145.958C-33.957,-147.05 -33.506,-148.636 -34.576,-149.466C-36.025,-150.647 -37.959,-150.847 -39.658,-151.48L-38.984,-151.93C-37.162,-151.467 -35.307,-151.73 -33.569,-152.412C-35.183,-154.181 -37.469,-155.804 -39.997,-155.149C-42.524,-154.97 -44.583,-151.775 -42.96,-149.581M-76.748,-154.979C-76.766,-154.026 -76.779,-153.071 -76.797,-152.117C-75.437,-152.091 -74.078,-152.077 -72.718,-152.073C-74.158,-150.107 -75.598,-148.142 -77.064,-146.189C-77.055,-145.329 -77.038,-144.473 -77.033,-143.609C-73.944,-143.613 -70.859,-143.6 -67.771,-143.609C-67.775,-144.505 -67.775,-145.391 -67.775,-146.283C-69.424,-146.287 -71.073,-146.287 -72.718,-146.287C-70.579,-148.94 -68.648,-151.757 -67.16,-154.828C-67.053,-154.6 -66.839,-154.141 -66.732,-153.914C-66.839,-150.482 -67.031,-147.045 -66.933,-143.604C-64.013,-143.604 -61.089,-143.609 -58.165,-143.613C-58.156,-144.46 -58.147,-145.307 -58.134,-146.154C-60.22,-146.234 -62.957,-145.726 -64.178,-147.91C-62.475,-148.133 -60.764,-148.276 -59.047,-148.364C-59.065,-149.162 -59.083,-149.96 -59.096,-150.758C-60.518,-150.758 -61.945,-150.754 -63.367,-150.754C-63.357,-151.084 -63.349,-151.743 -63.34,-152.073C-61.633,-152.087 -59.921,-152.109 -58.209,-152.117C-58.258,-153.071 -58.316,-154.021 -58.375,-154.97C-64.499,-155.167 -70.623,-154.962 -76.748,-154.979M-101.303,-154.988C-104.945,-153.981 -105.957,-149.176 -104.317,-146.132C-102.81,-143.007 -98.036,-142.445 -95.741,-144.999C-94.167,-146.479 -94.141,-148.792 -94.336,-150.789C-94.787,-153.883 -98.331,-156.093 -101.303,-154.988M-141.986,-154.596C-143.386,-151.021 -144.326,-147.29 -145.409,-143.613C-144.406,-143.617 -143.408,-143.613 -142.41,-143.613C-142.155,-144.46 -141.91,-145.311 -141.656,-146.154C-140.114,-145.931 -138.599,-145.227 -138.09,-143.64C-136.922,-143.613 -135.755,-143.6 -134.591,-143.586C-135.804,-147.508 -136.985,-151.44 -138.456,-155.274C-139.642,-155.091 -140.818,-154.868 -141.986,-154.596M-32.878,-155.501C-32.887,-151.538 -32.892,-147.575 -32.9,-143.613C-31.416,-143.604 -29.936,-143.604 -28.452,-143.626C-27.979,-147.58 -28.06,-151.574 -28.501,-155.523C-29.963,-155.523 -31.42,-155.509 -32.878,-155.501M-82.101,-155.51C-82.101,-151.543 -82.097,-147.58 -82.101,-143.613C-80.492,-143.609 -78.883,-143.609 -77.269,-143.609C-77.67,-147.549 -77.684,-151.516 -77.488,-155.469C-79.025,-155.479 -80.563,-155.496 -82.101,-155.509M-167.866,-161.251C-160.591,-161.558 -153.312,-161.38 -146.038,-161.429L284.533,-161.429C334.99,-161.3 385.403,-161.625 435.861,-161.246C435.816,-148.98 435.46,-136.717 435.728,-124.455C435.683,-74.831 435.728,-25.211 435.683,24.413C435.772,36.452 435.549,48.501 435.816,60.54C435.46,66.62 435.728,72.722 435.639,78.815C435.55,82.448 435.995,86.166 434.97,89.709C432.474,99.338 422.979,106.839 412.906,106.456C226.895,106.442 40.865,106.442 -145.16,106.456C-156.94,106.95 -167.955,96.44 -167.875,84.624C-167.87,2.666 -167.875,-79.293 -167.866,-161.251" style="fill:rgb(221,10,55);fill-rule:nonzero;"/>
        </g>
        <g transform="matrix(1.19865,0,0,1.19865,21.3004,-190.302)">
            <path d="M0,5.879C-0.588,3.811 -1.069,0.833 1.329,-0.272C2.648,1.239 3.121,3.579 2.091,5.358C1.649,6.151 0.74,5.964 0,5.879" style="fill:rgb(45,91,153);fill-rule:nonzero;"/>
        </g>
        <g transform="matrix(1.19865,0,0,1.19865,33.771,-189.228)">
            <path d="M0,0.106C0.557,-0.986 1.707,-1.146 2.813,-1.142C2.826,-0.344 2.831,0.454 2.813,1.252C1.734,1.23 0.628,1.109 0,0.106" style="fill:rgb(45,91,153);fill-rule:nonzero;"/>
        </g>
        <g transform="matrix(1.19865,0,0,1.19865,78.7204,-182.534)">
            <path d="M0,-7.003C1.248,-5.879 2.652,-4.431 2.331,-2.59C1.716,-1.511 0.637,-0.812 -0.272,0C-0.33,-2.336 -0.348,-4.685 0,-7.003" style="fill:rgb(45,91,153);fill-rule:nonzero;"/>
        </g>
        <g transform="matrix(1.19865,0,0,1.19865,173.455,-188.15)">
            <path d="M0,-1.729C0.985,-3.071 3.495,-1.194 2.157,-0.004C1.146,1.342 -1.319,-0.53 0,-1.729" style="fill:rgb(45,91,153);fill-rule:nonzero;"/>
        </g>
        <g transform="matrix(1.19865,0,0,1.19865,-26.6673,-185.622)">
            <path d="M0,-1.516C0.374,-1.253 1.177,-1.275 1.159,-0.656C0.807,-0.152 0.183,-0.08 -0.379,0C-0.236,-0.504 -0.112,-1.008 0,-1.516" style="fill:rgb(45,91,153);fill-rule:nonzero;"/>
        </g>
        <g transform="matrix(1.19865,0,0,1.19865,138.956,-187.492)">
            <path d="M0,1.627C0.018,0.959 0.294,0.401 0.816,0C1.124,0.326 1.422,0.66 1.721,0.999C1.15,1.221 0.575,1.422 0,1.627" style="fill:rgb(45,91,153);fill-rule:nonzero;"/>
        </g>
        <g transform="matrix(1.19865,0,0,1.19865,34.5295,-73.4804)">
            <path d="M0,2.415C-0.543,1.061 -0.053,-0.406 0.468,-1.681C1.124,-1.164 1.997,-0.763 2.309,0.075C2.866,1.382 2.389,2.79 2.091,4.096C1.315,3.664 0.343,3.32 0,2.416L0,2.415Z" style="fill:rgb(45,91,153);fill-rule:nonzero;"/>
        </g>
        <g transform="matrix(1.19865,0,0,1.19865,75.7711,-73.4916)">
            <path d="M0,-0.517C0.678,-0.998 1.698,-1.774 2.456,-0.985C3.325,-0.423 2.964,0.962 1.895,0.936C0.856,1.257 0.388,0.21 0,-0.517" style="fill:rgb(45,91,153);fill-rule:nonzero;"/>
        </g>
        <g transform="matrix(1.19865,0,0,1.19865,145.415,-73.5498)">
            <path d="M0,0.093C0.375,-0.42 0.611,-1.218 1.369,-1.244C2.255,-1.409 3.477,-0.442 2.755,0.414C2.104,1.502 0.664,0.828 0,0.093" style="fill:rgb(45,91,153);fill-rule:nonzero;"/>
        </g>
        <g transform="matrix(1.19865,0,0,1.19865,-14.812,-69.7945)">
            <path d="M0,-3.869C1.85,-4.662 3.094,-1.898 2.051,-0.575C1.556,-0.017 0.914,0.793 0.076,0.379C-1.194,-0.556 -1.573,-3.057 0,-3.869" style="fill:rgb(45,91,153);fill-rule:nonzero;"/>
        </g>
        <g transform="matrix(1.19865,0,0,1.19865,124.487,-71.2431)">
            <path d="M0,-1.43C-0.223,-2.852 2.13,-3.521 2.683,-2.193C3.521,-0.815 2.46,0.718 2.099,2.091C1.056,1.186 -0.379,0.174 0,-1.43" style="fill:rgb(45,91,153);fill-rule:nonzero;"/>
        </g>
        <g transform="matrix(1.19865,0,0,1.19865,155.407,-72.3379)">
            <path d="M0,0.375C-0.183,-0.811 0.94,-2.661 2.273,-1.827C3.619,-0.53 2.643,1.472 2.447,3.036C1.498,2.322 -0.054,1.814 0,0.375" style="fill:rgb(45,91,153);fill-rule:nonzero;"/>
        </g>
        <g transform="matrix(1.19865,0,0,1.19865,15.9843,-69.9073)">
            <path d="M0,-0.851C0.602,-1.658 1.275,-0.815 1.792,-0.391C1.364,0.009 0.932,0.411 0.495,0.807C0.071,0.428 -0.784,-0.387 0,-0.851" style="fill:rgb(45,91,153);fill-rule:nonzero;"/>
        </g>
        <g transform="matrix(1.19865,0,0,1.19865,-6.87736,-201.848)">
            <path d="M0,-75.254C8.023,-75.009 16.046,-75.869 24.065,-75.335C39.519,-75.268 54.982,-74.946 70.431,-75.428C111.292,-75.263 152.148,-75.076 193.009,-75.312C198.648,-75.188 204.295,-74.996 209.938,-75.147C214.842,-75.183 219.74,-75.62 224.644,-75.441C237.138,-75.147 249.636,-75.218 262.13,-75.375C273.568,-75.615 285.005,-75.201 296.443,-75.268C308.772,-75.205 321.097,-75.463 333.426,-75.33C344.12,-75.294 354.817,-75.129 365.515,-75.188C375.625,-75.343 385.734,-74.951 395.83,-75.196C400.911,-75.254 405.948,-75.615 410.985,-75.548C420.479,-75.517 430.018,-74.809 439.512,-75.21C444.995,-75.575 450.522,-75.49 456.004,-75.477C468.04,-75.33 480.075,-75.04 492.109,-75.499C503.119,-75.352 514.128,-75.12 525.094,-75.281C536.728,-76.03 548.406,-74.416 560.04,-75.597C560.352,-50.15 560.307,-24.698 560.084,0.749C509.626,0.37 459.213,0.695 408.756,0.566L-21.815,0.566C-29.089,0.615 -36.368,0.437 -43.643,0.745C-43.816,0.753 -44.16,0.767 -44.333,0.776C-44.365,-24.65 -44.298,-50.07 -44.365,-75.495L-43.554,-75.441C-36.319,-74.916 -29.067,-75.254 -21.824,-75.33C-14.554,-75.004 -7.275,-75.254 0,-75.254Z" style="fill:rgb(35,31,32);fill-rule:nonzero;"/>
        </g>
        <g transform="matrix(1.19865,0,0,1.19865,241.363,-117.347)">
            <path d="M0,-24.225C-5.474,-20.539 -9.877,-15.417 -13.181,-9.739C-14.117,-8.384 -12.931,-6.636 -11.665,-5.981C-9.931,-4.952 -7.867,-5.624 -6.084,-6.15C-1.618,-7.67 1.199,-11.678 4.663,-14.624C6.16,-15.975 8.157,-16.808 9.236,-18.587C10.987,-21.332 10.823,-24.746 10.622,-27.858C7.002,-26.94 3.178,-26.316 0,-24.225M4.609,-32.672C6.98,-33.84 9.699,-33.323 12.24,-33.345C14.527,-32.021 16.256,-29.69 16.916,-27.127C17.406,-25.304 16.867,-23.441 16.314,-21.698C15.302,-18.48 14.134,-15.31 12.9,-12.177C11.794,-9.485 9.303,-7.782 7.087,-6.057C7.007,-5.352 6.922,-4.648 6.847,-3.94C8.964,-3.436 11.246,-2.228 13.39,-3.267C17.995,-5.384 22.764,-8.152 28.037,-7.434C29.512,-5.308 31.001,-3.186 32.267,-0.922C34.304,-0.962 36.506,-0.481 38.427,-1.336C42.345,-3.957 44.275,-8.442 47.07,-12.075C50.226,-12.342 53.596,-11.963 56.248,-10.086C71.118,0.331 89.027,5.198 106.736,8.087C107.963,8.296 109.251,8.349 110.369,8.961C108.943,9.615 107.339,9.227 105.827,9.321C103.604,9.236 101.321,9.593 99.15,8.951C94.461,7.833 89.62,8.643 84.864,8.377C82.448,8.287 80.091,7.699 77.75,7.141C68.354,4.824 59.363,0.834 51.385,-4.648C47.552,-2.099 44.574,1.592 40.464,3.745C38.811,4.672 36.849,4.886 34.991,4.654C31.451,4.222 28.224,2.497 24.698,2.015C23.62,1.753 22.666,2.421 21.761,2.894C19.438,4.24 17.241,5.924 14.567,6.526C10.35,3.736 5.924,1.289 1.645,-1.403C-0.584,-2.642 -2.942,-0.984 -4.965,-0.088C-10.096,2.582 -16.078,4.931 -21.895,3.188C-22.001,2.568 -21.801,2.087 -21.293,1.734C-19.817,0.384 -18.217,-0.819 -16.613,-2.01C-18.302,-4.171 -19.947,-6.989 -18.904,-9.801C-15.231,-20.615 -5.754,-28.517 4.609,-32.672" style="fill:rgb(35,31,32);fill-rule:nonzero;"/>
        </g>
        <g transform="matrix(2.18701,0,0,2.14102,423.683,-131.841)">
            <text x="0px" y="0px" style="font-family:'ArialMT', 'Arial', sans-serif;font-size:22px;">9010</text>
        </g>
        <g transform="matrix(2.18701,0,0,2.14102,545.478,-131.841)">
            <text x="0px" y="0px" style="font-family:'ArialMT', 'Arial', sans-serif;font-size:22px;">123</text>
        </g>
        <g transform="matrix(3.19795,0,0,3.02187,575.814,-111.821)">
            <path d="M0,-23.058C-3.565,-22.184 -7.042,-20.62 -9.628,-17.959C-11.5,-15.922 -12.926,-13.092 -12.391,-10.252C-11.767,-7.386 -9.851,-4.934 -7.532,-3.178C-0.713,1.319 9.183,1.524 15.557,-3.932C17.562,-5.83 19.657,-8.211 19.613,-11.148C19.747,-15.079 17.161,-18.699 13.773,-20.5C11.545,-21.667 9.094,-22.416 6.642,-23.04C4.458,-23.245 2.229,-23.227 0,-23.058M0,-26.169C5.75,-27.043 11.857,-25.8 16.627,-22.488C19.212,-20.874 20.995,-18.307 22.198,-15.57C23.179,-13.457 22.911,-11.077 22.466,-8.879C21.574,-4.832 18.677,-1.471 15.111,0.508C10.476,2.92 5.082,3.985 -0.089,3.058C-3.654,2.376 -7.398,1.493 -10.252,-0.91C-13.461,-3.642 -15.601,-7.774 -15.556,-12.035C-15.556,-14.491 -14.798,-17.005 -13.148,-18.877C-9.939,-22.907 -5.17,-25.639 0,-26.169" style="fill:rgb(0,81,193);fill-rule:nonzero;"/>
        </g>
    </g>
</svg>
