<?xml version="1.0" encoding="utf-8"?>
<!-- Generator: Adobe Illustrator 14.0.0, SVG Export Plug-In . SVG Version: 6.00 Build 43363)  -->
<!DOCTYPE svg PUBLIC "-//W3C//DTD SVG 1.1//EN" "http://www.w3.org/Graphics/SVG/1.1/DTD/svg11.dtd">
<svg version="1.1" id="Layer_1" xmlns="http://www.w3.org/2000/svg" xmlns:xlink="http://www.w3.org/1999/xlink" x="0px" y="0px"
	 width="250px" height="129px" viewBox="0 0 250 129" enable-background="new 0 0 250 129" xml:space="preserve">
<g>
	<path fill="#FFFFFF" d="M223.248,47.748l0.384-0.144l12.208-4.583l-12.255-4.453c-6.524-2.381-13.721-4.643-21.348-6.774
		l-1.15-13.895l-1.079-12.93l-7.627,10.489l-8.563,11.763c-42.933-9.43-87.665-11.037-114.766-4.012
		c-3.693,0.964-4.485,4.631-5.372,8.882c-0.121,0.547-0.288,1.273-0.432,1.917C17.244,43.843,6.116,59.797,5.085,71.537
		c-1.103,12.227,8.586,24.313,25.496,32.218l-6.764,20.202h38.135l0.959-2.782c1.799,1.497,4.508,2.782,8.682,2.782h8.035
		c3.551,0,7.916-0.95,11.585-4.368c1.583,2.048,4.604,4.368,10.218,4.368h30.1l1.703-5.416l2.83,5.49l59.242-0.074l3.574-10.641
		l5.372-7.123c25.088-6.248,39.525-16.846,40.678-29.955C245.577,68.739,241.98,58.154,223.248,47.748"/>
	<path fill="#003876" d="M201.566,43.211c44.563,24.23,27.606,42.268-5.828,59.734C250.016,92.24,257.762,62.928,201.566,43.211"/>
	<polyline fill="#BE311A" points="222.002,42.855 200.224,51.01 206.508,71.037 189.07,52.999 165.687,63.131 178.397,43.414 
		160.625,30.329 184.657,34.091 196.338,18.054 197.777,35.532 	"/>
	<path fill="#BE311A" d="M70.322,27.639c-1.583,0.417-2.111,9.858-3.67,10.311C-20.291,55.82,7.339,96.956,52.406,105.408
		c9.714,3.821-81.907-36.063,13.071-54.1c1.368-0.453,1.943-10.18,3.358-10.608c31.109-9.37,94.716-9.406,153.167,2.155
		C169.667,23.805,103.949,18.923,70.322,27.639"/>
	<path fill="#BE311A" d="M130.381,82.619c-1.583,2.966-5.517,8.347-5.517,8.347c-1.608,2.133-5.541,0.715-5.541,0.715
		c-16.334-6.904-29.333,2.657-29.333,2.657c-0.216,2.165-2.016,2.485-2.016,2.485c-8.586,0.977-14.677-3.095-14.677-3.095
		c1.007-2.665,2.877-7.596,2.877-7.596c7.436,4.356,14.463,1.941,14.463,1.941s0.96-3.954,3.694-4.942
		c1.152-0.474,10.313-5.834,25.448-0.106C125.511,85.05,130.381,82.619,130.381,82.619"/>
	<path fill="#003876" d="M111.695,64.036c0,0-0.575,1.833-2.781,3.68l-0.312-0.037c-11.561-1.167-12.28,3.608-12.28,3.608
		l-0.025,0.142c-1.199,0-14.222-0.142-11.656-10.953l6.405-17.729h12.04c0,0-5.062,14.264-5.709,15.978
		c-0.864,2.75,0.552,2.798,1.007,3.107c2.207,0.25,2.807-1.762,2.807-1.762l6.282-17.323h11.705"/>
	<path fill="#003876" d="M144.986,42.617l-5.779,7.787h-17.75c-2.974,0-2.782,0.976-3.478,1.857c0,0-0.575,1.929,1.655,2.619
		l13.768,3.191c0,0,9.33,3.012,6.596,8.536l-5.325,8.823c0,0-1.822,2.786-3.188,3.691c0,0-2.544,3.498-16.214-1.941
		c0,0-11.873-3.489-20.842,2.716c0,0-0.577,1.75-1.272,3.583c0,0-6.212,3.786-17.436-1.583l2.95-7.857c0,0,8.683,4.783,16.574,0.414
		l1.08-3.165c0,0,0.719-4.775,12.28-3.608c0,0,7.818,0.701,19.284,5.037c2.063,0.416,3.405-0.382,4.749-2.715
		c0,0,1.942-2.418-2.23-3.882c0,0-4.558-0.964-10.481-2.417c0,0-6.789-1.547-5.925-4.178c0,0,3-8.465,4.582-13.371
		c0.408-0.703,1.606-3.56,7.315-3.56"/>
	<g>
		<defs>
			<path id="SVGID_1_" d="M144.986,42.617l-5.779,7.787h-17.75c-2.974,0-2.782,0.976-3.478,1.857c0,0-0.575,1.929,1.655,2.619
				l13.768,3.191c0,0,9.33,3.012,6.596,8.536l-5.325,8.823c0,0-1.822,2.786-3.188,3.691c0,0-2.544,3.498-16.214-1.941
				c0,0-11.873-3.489-20.842,2.716c0,0-0.577,1.75-1.272,3.583c0,0-6.212,3.786-17.436-1.583l2.95-7.857
				c0,0,8.683,4.783,16.574,0.414l1.08-3.165c0,0,0.719-4.775,12.28-3.608c0,0,7.818,0.701,19.284,5.037
				c2.063,0.416,3.405-0.382,4.749-2.715c0,0,1.942-2.418-2.23-3.882c0,0-4.558-0.964-10.481-2.417c0,0-6.789-1.547-5.925-4.178
				c0,0,3-8.465,4.582-13.371c0.408-0.703,1.606-3.56,7.315-3.56"/>
		</defs>
		<clipPath id="SVGID_2_">
			<use xlink:href="#SVGID_1_"  overflow="visible"/>
		</clipPath>
		<polyline clip-path="url(#SVGID_2_)" fill="#BE311A" points="117.572,48.795 117.956,53.213 146.689,59.702 132.611,81.216 
			124.911,83.37 112.775,79.431 98.792,78.954 94.451,82.061 93.42,84.217 87.688,85.906 77.182,84.967 73.608,81.869 78.31,72.19 
			93.899,73.597 96.441,63.453 110.52,63.738 		"/>
	</g>
	<path fill="#003876" d="M158.154,42.736l3.838,28.825h-9.833l-0.816-7.037h-9.785l-2.975,4.454l1.415-2.371
		c2.158-4.356-3.19-7.143-5.54-8.131l11.345-15.728 M150.144,49.665l-2.711,3.988h-4.173l2.471,2.5l-2.327,4l4.413-2.369
		l3.047,2.369l-0.217-4l4.078-2.5H150.6L150.144,49.665z"/>
	<polyline fill="#003876" points="57.682,89.836 54.228,99.586 47.585,99.586 50.871,89.836 40.318,89.836 30.604,118.886 
		40.845,118.886 44.731,108.136 51.423,108.136 47.874,118.886 58.594,118.886 68.619,89.836 	"/>
	<path fill="#003876" d="M84.306,100.848l-1.871,6.525c0,0-0.84,3.334-4.413,3.334c-3.645,0-2.686-3.939-2.686-3.939l2.207-6.357
		c0,0,1.103-2.919,4.101-2.919C85.073,97.491,84.306,100.848,84.306,100.848 M79.7,118.886c8.73,0,11.13-6.726,11.897-8.57
		c0.767-1.848,2.158-6.908,2.831-9.417c1.103-4.11,1.055-11.063-7.771-11.063c0,0-5.516-0.094-7.411-0.094
		c-7.124,0-10.098,5.569-10.961,8.132c-0.839,2.548-3.07,8.726-3.934,11.38c-1.103,3.477-0.743,9.632,7.315,9.632H79.7z"/>
	<path fill="#003876" d="M107.858,110.707c-3.622,0-2.446-4.107-2.446-4.107l1.992-5.869c0,0,0.887-3.156,3.885-3.156l3.598,0.05
		l4.317,4.06l4.076-12.003c0,0-10.36,0.062-14.198,0.062c-7.099,0-10.338,5.569-11.177,8.132c-0.863,2.548-2.855,8.726-3.693,11.38
		c-1.104,3.477-0.745,9.632,7.29,9.632h23.41l0.863-8.285"/>
	<polyline fill="#003876" points="155.108,89.836 143.356,89.836 132.755,104.182 137.552,89.836 127.071,89.836 117.428,118.886 
		128.077,118.886 132.227,105.67 139.063,118.959 149.688,118.959 142.852,105.005 	"/>
	<polyline fill="#003876" points="157.459,89.824 177.103,89.824 174.319,97.586 165.037,97.586 164.127,100.848 177.75,100.848 
		174.968,107.553 161.849,107.553 160.745,111.242 180.987,111.242 178.397,118.959 147.674,118.959 	"/>
	<polyline fill="#003876" points="188.52,89.836 191.54,100.469 199.433,89.801 210.488,89.801 194.61,110.78 191.9,118.886 
		181.635,118.886 184.682,109.659 178.445,89.836 	"/>
	<polyline fill="#003876" points="201.183,115.993 202.237,115.993 202.237,115.376 199.384,115.376 199.384,115.993 
		200.464,115.993 200.464,118.886 201.183,118.886 	"/>
	<polyline fill="#003876" points="206.075,115.376 205.021,115.376 204.396,118.15 204.372,118.15 203.748,115.376 202.67,115.376 
		202.67,118.886 203.366,118.886 203.366,115.958 204.013,118.886 204.732,118.886 205.38,115.958 205.38,118.886 206.075,118.886 	
		"/>
</g>
</svg>
